<mxfile host="app.diagrams.net" agent="Mozilla/5.0 (Windows NT 10.0; Win64; x64) AppleWebKit/537.36 (KHTML, like Gecko) Chrome/122.0.0.0 Safari/537.36" version="28.2.1">
  <diagram name="Static Website Hosting" id="BGMLYR5DGVPc2XYgn4jy">
    <mxGraphModel dx="1426" dy="777" grid="1" gridSize="10" guides="1" tooltips="1" connect="1" arrows="1" fold="1" page="1" pageScale="1" pageWidth="827" pageHeight="1169" math="0" shadow="0">
      <root>
        <mxCell id="0" />
        <mxCell id="1" parent="0" />
        <mxCell id="a8Rb8NSvhi7rfkRXS39f-1" value="AWS Cloud" style="points=[[0,0],[0.25,0],[0.5,0],[0.75,0],[1,0],[1,0.25],[1,0.5],[1,0.75],[1,1],[0.75,1],[0.5,1],[0.25,1],[0,1],[0,0.75],[0,0.5],[0,0.25]];outlineConnect=0;gradientColor=none;html=1;whiteSpace=wrap;fontSize=12;fontStyle=0;container=1;pointerEvents=0;collapsible=0;recursiveResize=0;shape=mxgraph.aws4.group;grIcon=mxgraph.aws4.group_aws_cloud_alt;strokeColor=#232F3E;fillColor=none;verticalAlign=top;align=left;spacingLeft=30;fontColor=#232F3E;dashed=0;" parent="1" vertex="1">
          <mxGeometry x="170" y="270" width="630" height="190" as="geometry" />
        </mxCell>
        <mxCell id="a8Rb8NSvhi7rfkRXS39f-5" value="API Gateway" style="text;strokeColor=none;fillColor=none;html=1;fontSize=18;fontStyle=1;verticalAlign=middle;align=center;" parent="a8Rb8NSvhi7rfkRXS39f-1" vertex="1">
          <mxGeometry x="20" y="128" width="100" height="40" as="geometry" />
        </mxCell>
        <mxCell id="a8Rb8NSvhi7rfkRXS39f-6" value="Lambda" style="text;strokeColor=none;fillColor=none;html=1;fontSize=18;fontStyle=1;verticalAlign=middle;align=center;" parent="a8Rb8NSvhi7rfkRXS39f-1" vertex="1">
          <mxGeometry x="179" y="128" width="100" height="40" as="geometry" />
        </mxCell>
        <mxCell id="a8Rb8NSvhi7rfkRXS39f-7" value="SageMaker Endpoint" style="text;strokeColor=none;fillColor=none;html=1;fontSize=18;fontStyle=1;verticalAlign=middle;align=center;" parent="a8Rb8NSvhi7rfkRXS39f-1" vertex="1">
          <mxGeometry x="339" y="128" width="100" height="40" as="geometry" />
        </mxCell>
        <mxCell id="a8Rb8NSvhi7rfkRXS39f-8" value="" style="edgeStyle=orthogonalEdgeStyle;html=1;endArrow=block;elbow=vertical;startArrow=none;endFill=1;strokeColor=#545B64;rounded=0;" parent="a8Rb8NSvhi7rfkRXS39f-1" edge="1">
          <mxGeometry width="100" relative="1" as="geometry">
            <mxPoint x="109" y="88.5" as="sourcePoint" />
            <mxPoint x="190" y="89" as="targetPoint" />
          </mxGeometry>
        </mxCell>
        <mxCell id="a8Rb8NSvhi7rfkRXS39f-9" value="" style="edgeStyle=orthogonalEdgeStyle;html=1;endArrow=block;elbow=vertical;startArrow=none;endFill=1;strokeColor=#545B64;rounded=0;" parent="a8Rb8NSvhi7rfkRXS39f-1" edge="1">
          <mxGeometry width="100" relative="1" as="geometry">
            <mxPoint x="269" y="88.5" as="sourcePoint" />
            <mxPoint x="350" y="89" as="targetPoint" />
          </mxGeometry>
        </mxCell>
        <mxCell id="a8Rb8NSvhi7rfkRXS39f-19" value="" style="edgeStyle=orthogonalEdgeStyle;html=1;endArrow=block;elbow=vertical;startArrow=none;endFill=1;strokeColor=#545B64;rounded=0;" parent="a8Rb8NSvhi7rfkRXS39f-1" edge="1">
          <mxGeometry width="100" relative="1" as="geometry">
            <mxPoint x="428" y="88.5" as="sourcePoint" />
            <mxPoint x="509" y="89" as="targetPoint" />
          </mxGeometry>
        </mxCell>
        <mxCell id="a8Rb8NSvhi7rfkRXS39f-21" value="ML Model" style="text;strokeColor=none;fillColor=none;html=1;fontSize=18;fontStyle=1;verticalAlign=middle;align=center;" parent="a8Rb8NSvhi7rfkRXS39f-1" vertex="1">
          <mxGeometry x="499" y="128" width="100" height="40" as="geometry" />
        </mxCell>
        <mxCell id="nvloOiHuD1VD7yiHZgIZ-1" value="" style="sketch=0;points=[[0,0,0],[0.25,0,0],[0.5,0,0],[0.75,0,0],[1,0,0],[0,1,0],[0.25,1,0],[0.5,1,0],[0.75,1,0],[1,1,0],[0,0.25,0],[0,0.5,0],[0,0.75,0],[1,0.25,0],[1,0.5,0],[1,0.75,0]];outlineConnect=0;fontColor=#232F3E;fillColor=#ED7100;strokeColor=#ffffff;dashed=0;verticalLabelPosition=bottom;verticalAlign=top;align=center;html=1;fontSize=12;fontStyle=0;aspect=fixed;shape=mxgraph.aws4.resourceIcon;resIcon=mxgraph.aws4.lambda;" vertex="1" parent="a8Rb8NSvhi7rfkRXS39f-1">
          <mxGeometry x="190" y="50" width="78" height="78" as="geometry" />
        </mxCell>
        <mxCell id="nvloOiHuD1VD7yiHZgIZ-2" value="" style="sketch=0;points=[[0,0,0],[0.25,0,0],[0.5,0,0],[0.75,0,0],[1,0,0],[0,1,0],[0.25,1,0],[0.5,1,0],[0.75,1,0],[1,1,0],[0,0.25,0],[0,0.5,0],[0,0.75,0],[1,0.25,0],[1,0.5,0],[1,0.75,0]];outlineConnect=0;fontColor=#232F3E;fillColor=#8C4FFF;strokeColor=#ffffff;dashed=0;verticalLabelPosition=bottom;verticalAlign=top;align=center;html=1;fontSize=12;fontStyle=0;aspect=fixed;shape=mxgraph.aws4.resourceIcon;resIcon=mxgraph.aws4.api_gateway;" vertex="1" parent="a8Rb8NSvhi7rfkRXS39f-1">
          <mxGeometry x="31" y="50" width="78" height="78" as="geometry" />
        </mxCell>
        <mxCell id="nvloOiHuD1VD7yiHZgIZ-3" value="" style="sketch=0;points=[[0,0,0],[0.25,0,0],[0.5,0,0],[0.75,0,0],[1,0,0],[0,1,0],[0.25,1,0],[0.5,1,0],[0.75,1,0],[1,1,0],[0,0.25,0],[0,0.5,0],[0,0.75,0],[1,0.25,0],[1,0.5,0],[1,0.75,0]];outlineConnect=0;fontColor=#232F3E;fillColor=#01A88D;strokeColor=#ffffff;dashed=0;verticalLabelPosition=bottom;verticalAlign=top;align=center;html=1;fontSize=12;fontStyle=0;aspect=fixed;shape=mxgraph.aws4.resourceIcon;resIcon=mxgraph.aws4.sagemaker;" vertex="1" parent="a8Rb8NSvhi7rfkRXS39f-1">
          <mxGeometry x="350" y="50" width="78" height="78" as="geometry" />
        </mxCell>
        <mxCell id="nvloOiHuD1VD7yiHZgIZ-4" value="" style="sketch=0;points=[[0,0,0],[0.25,0,0],[0.5,0,0],[0.75,0,0],[1,0,0],[0,1,0],[0.25,1,0],[0.5,1,0],[0.75,1,0],[1,1,0],[0,0.25,0],[0,0.5,0],[0,0.75,0],[1,0.25,0],[1,0.5,0],[1,0.75,0]];outlineConnect=0;fontColor=#232F3E;fillColor=#01A88D;strokeColor=#ffffff;dashed=0;verticalLabelPosition=bottom;verticalAlign=top;align=center;html=1;fontSize=12;fontStyle=0;aspect=fixed;shape=mxgraph.aws4.resourceIcon;resIcon=mxgraph.aws4.machine_learning;" vertex="1" parent="a8Rb8NSvhi7rfkRXS39f-1">
          <mxGeometry x="510" y="50" width="78" height="78" as="geometry" />
        </mxCell>
        <mxCell id="a8Rb8NSvhi7rfkRXS39f-10" value="" style="sketch=0;outlineConnect=0;fontColor=#232F3E;gradientColor=none;fillColor=#232F3D;strokeColor=none;dashed=0;verticalLabelPosition=bottom;verticalAlign=top;align=center;html=1;fontSize=12;fontStyle=0;aspect=fixed;pointerEvents=1;shape=mxgraph.aws4.user;" parent="1" vertex="1">
          <mxGeometry x="30" y="320" width="78" height="78" as="geometry" />
        </mxCell>
        <mxCell id="a8Rb8NSvhi7rfkRXS39f-11" value="&lt;strong data-end=&quot;218&quot; data-start=&quot;205&quot;&gt;User&lt;/strong&gt;" style="text;strokeColor=none;fillColor=none;html=1;fontSize=18;fontStyle=1;verticalAlign=middle;align=center;" parent="1" vertex="1">
          <mxGeometry x="19" y="398" width="100" height="40" as="geometry" />
        </mxCell>
        <mxCell id="a8Rb8NSvhi7rfkRXS39f-12" value="" style="edgeStyle=orthogonalEdgeStyle;html=1;endArrow=block;elbow=vertical;startArrow=none;endFill=1;strokeColor=#545B64;rounded=0;" parent="1" edge="1">
          <mxGeometry width="100" relative="1" as="geometry">
            <mxPoint x="108" y="358.5" as="sourcePoint" />
            <mxPoint x="200" y="359" as="targetPoint" />
          </mxGeometry>
        </mxCell>
      </root>
    </mxGraphModel>
  </diagram>
</mxfile>
